<svg id="Layer_1" data-name="Layer 1" xmlns="http://www.w3.org/2000/svg" viewBox="0 0 657.51 312.34"><defs><style>.cls-1{fill:#2d3748;}.cls-2{fill:#069e2d;}</style></defs><path class="cls-1" d="M.58,229.3H21.35a22.36,22.36,0,0,1,9.21,1.78,18.58,18.58,0,0,1,6.63,4.85,21,21,0,0,1,4,7.14,28.32,28.32,0,0,1,0,17.28,20.62,20.62,0,0,1-4,7.12,18.87,18.87,0,0,1-6.63,4.82,22.52,22.52,0,0,1-9.21,1.78H.58Zm11.47,11.14V263h8.44a11.55,11.55,0,0,0,4.53-.83,9.16,9.16,0,0,0,3.28-2.33,9.72,9.72,0,0,0,2-3.56,15,15,0,0,0,.67-4.59,12.21,12.21,0,0,0-2.64-8.15c-1.76-2.06-4.37-3.09-7.81-3.09Z"/><path class="cls-1" d="M103.59,262.07a23.94,23.94,0,0,1-3.67,5.22,23.51,23.51,0,0,1-4.94,4A24.32,24.32,0,0,1,89,274a23.73,23.73,0,0,1-15.81-.89,24.32,24.32,0,0,1-7.57-5,23.72,23.72,0,0,1-5.14-7.38,22.56,22.56,0,0,1,0-18.08,23.57,23.57,0,0,1,5.14-7.37,24.32,24.32,0,0,1,7.57-5A23.65,23.65,0,0,1,89,229.39,25.15,25.15,0,0,1,94.92,232a22.54,22.54,0,0,1,4.94,4,24.46,24.46,0,0,1,3.67,5.16l-10.44,4.71a11.65,11.65,0,0,0-4.33-4.62,12.51,12.51,0,0,0-11.14-.81,12.52,12.52,0,0,0-3.87,2.59,11.8,11.8,0,0,0-2.61,3.87,12.43,12.43,0,0,0,0,9.53,11.8,11.8,0,0,0,2.61,3.87,12.49,12.49,0,0,0,3.87,2.58,12,12,0,0,0,15.47-5.42Z"/><path class="cls-1" d="M193,262.07a23.61,23.61,0,0,1-3.67,5.22,23.26,23.26,0,0,1-4.94,4,24.41,24.41,0,0,1-6,2.64,23.57,23.57,0,0,1-6.66.95,23.22,23.22,0,0,1-9.15-1.84,24.37,24.37,0,0,1-7.58-5,24.06,24.06,0,0,1-5.14-7.38,22.56,22.56,0,0,1,0-18.08,23.9,23.9,0,0,1,5.14-7.37,24.37,24.37,0,0,1,7.58-5,23.65,23.65,0,0,1,15.78-.89,25.52,25.52,0,0,1,5.94,2.61,22.72,22.72,0,0,1,4.93,4,24.5,24.5,0,0,1,3.68,5.16l-10.45,4.71a11.65,11.65,0,0,0-4.33-4.62,12.51,12.51,0,0,0-11.14-.81,12.52,12.52,0,0,0-3.87,2.59,11.8,11.8,0,0,0-2.61,3.87,12.43,12.43,0,0,0,0,9.53,11.8,11.8,0,0,0,2.61,3.87A12.49,12.49,0,0,0,167,262.9a12,12,0,0,0,15.47-5.42Z"/><path class="cls-1" d="M208.1,251.68a21.9,21.9,0,0,1,1.89-9,23.57,23.57,0,0,1,5.14-7.37,24.32,24.32,0,0,1,7.57-5,23.84,23.84,0,0,1,18.37,0,24.32,24.32,0,0,1,7.57,5,23.32,23.32,0,0,1,5.11,7.37,22.79,22.79,0,0,1,0,18.08,23.47,23.47,0,0,1-5.11,7.38,24.32,24.32,0,0,1-7.57,5,23.84,23.84,0,0,1-18.37,0,24.32,24.32,0,0,1-7.57-5,23.72,23.72,0,0,1-5.14-7.38A21.83,21.83,0,0,1,208.1,251.68Zm11.59,0a12.12,12.12,0,0,0,.95,4.77,11.8,11.8,0,0,0,2.61,3.87,12.49,12.49,0,0,0,3.87,2.58,11.91,11.91,0,0,0,4.74,1,12.09,12.09,0,0,0,8.63-3.53,12.12,12.12,0,0,0,3.53-8.64,12.1,12.1,0,0,0-.94-4.76,12.06,12.06,0,0,0-6.43-6.46,12.08,12.08,0,0,0-4.79-.94,11.9,11.9,0,0,0-4.74.94,12.52,12.52,0,0,0-3.87,2.59,11.8,11.8,0,0,0-2.61,3.87A12.11,12.11,0,0,0,219.69,251.68Z"/><path class="cls-1" d="M273.58,274.07V229.3h9.75l20,25v-25h11.42v44.77H305l-20-25v25Z"/><path class="cls-1" d="M377.68,262.07a23.61,23.61,0,0,1-8.61,9.27,24.41,24.41,0,0,1-6,2.64,23.57,23.57,0,0,1-6.66.95,23.31,23.31,0,0,1-9.16-1.84,24.32,24.32,0,0,1-7.57-5,23.89,23.89,0,0,1-5.14-7.38,22.56,22.56,0,0,1,0-18.08,23.73,23.73,0,0,1,5.14-7.37,24.32,24.32,0,0,1,7.57-5,23.67,23.67,0,0,1,15.79-.89A25.52,25.52,0,0,1,369,232a22.72,22.72,0,0,1,4.93,4,24.5,24.5,0,0,1,3.68,5.16l-10.45,4.71a11.65,11.65,0,0,0-4.33-4.62,12.51,12.51,0,0,0-11.14-.81,12.52,12.52,0,0,0-3.87,2.59,11.8,11.8,0,0,0-2.61,3.87,12.43,12.43,0,0,0,0,9.53,11.8,11.8,0,0,0,2.61,3.87,12.49,12.49,0,0,0,3.87,2.58,12,12,0,0,0,15.47-5.42Z"/><path class="cls-1" d="M416.77,229.3a19.71,19.71,0,0,1,7.46,1.29,14,14,0,0,1,8.29,8.75,19.69,19.69,0,0,1,1,6.32,19.47,19.47,0,0,1-.54,4.59,16.26,16.26,0,0,1-1.64,4.16,15.06,15.06,0,0,1-2.75,3.5,14.47,14.47,0,0,1-3.9,2.61l9.69,13.55H420.67l-8.5-12h-5.85v12H394.9V229.3Zm-10.45,10.45v11.93h9.81a7.92,7.92,0,0,0,2.93-.48,5.42,5.42,0,0,0,1.95-1.3A4.82,4.82,0,0,0,422.1,248a7.38,7.38,0,0,0,.35-2.24,6.48,6.48,0,0,0-1.44-4.3q-1.42-1.72-4.88-1.72Z"/><path class="cls-1" d="M452.06,229.3h34.38v11.14h-22.9v6.42h18.82v10.39H463.54V263h22.9v11.08H452.06Z"/><path class="cls-1" d="M502.45,229.3h39.37v11.14h-14v33.63H516.39V240.44H502.45Z"/><path class="cls-1" d="M557,251.68a21.9,21.9,0,0,1,1.9-9,23.7,23.7,0,0,1,5.13-7.37,24.48,24.48,0,0,1,7.58-5,23.84,23.84,0,0,1,18.37,0,24.44,24.44,0,0,1,7.57,5,23.48,23.48,0,0,1,5.11,7.37,22.9,22.9,0,0,1,0,18.08,23.64,23.64,0,0,1-5.11,7.38,24.44,24.44,0,0,1-7.57,5,23.84,23.84,0,0,1-18.37,0,24.48,24.48,0,0,1-7.58-5,23.86,23.86,0,0,1-5.13-7.38A21.84,21.84,0,0,1,557,251.68Zm11.6,0a12.12,12.12,0,0,0,.94,4.77,12,12,0,0,0,2.62,3.87,12.49,12.49,0,0,0,3.87,2.58,11.89,11.89,0,0,0,4.73,1,12,12,0,0,0,11.22-7.4,12.3,12.3,0,0,0-2.58-13.4,12,12,0,0,0-8.64-3.53,11.89,11.89,0,0,0-4.73.94,12.52,12.52,0,0,0-3.87,2.59,12,12,0,0,0-2.62,3.87A12.1,12.1,0,0,0,568.62,251.68Z"/><path class="cls-1" d="M631.92,260.64v.28a2.51,2.51,0,0,0,.46,1.35,4.46,4.46,0,0,0,1.37,1.32,8.67,8.67,0,0,0,2.36,1,12.89,12.89,0,0,0,3.38.4c2.15,0,3.63-.3,4.45-.89a2.44,2.44,0,0,0,1.24-1.87,2.93,2.93,0,0,0-1.78-2.46,34.32,34.32,0,0,0-5.86-2.41q-2.7-.87-5.59-2a25.82,25.82,0,0,1-5.31-2.9,15,15,0,0,1-4-4.19,10.75,10.75,0,0,1-1.58-5.91A12.36,12.36,0,0,1,626,232.2a16.77,16.77,0,0,1,5.54-2.78,24.19,24.19,0,0,1,7.06-1,25.23,25.23,0,0,1,7.26,1,17.48,17.48,0,0,1,5.79,2.89,14.06,14.06,0,0,1,3.85,4.57,12.69,12.69,0,0,1,1.4,6v.63H645.69v-.4a3.66,3.66,0,0,0-.43-1.66,4.69,4.69,0,0,0-1.29-1.55,6.91,6.91,0,0,0-2.15-1.12,9.48,9.48,0,0,0-3-.43,7,7,0,0,0-4.18.95,2.34,2.34,0,0,0,.43,4.33,40.29,40.29,0,0,0,5.71,2.29q2.29.81,5.22,2a26.69,26.69,0,0,1,5.48,3,16.74,16.74,0,0,1,4.3,4.42,11,11,0,0,1,1.75,6.28,11.57,11.57,0,0,1-5.07,9.93,17.82,17.82,0,0,1-5.63,2.53,27.72,27.72,0,0,1-7.09.86,29.33,29.33,0,0,1-7.49-.92,19.16,19.16,0,0,1-6-2.67,13,13,0,0,1-4-4.33,11.77,11.77,0,0,1-1.46-5.86v-.51Z"/><path class="cls-2" d="M14.07,290.58l8.62,21.35h-6l-1.17-3.12H7.14L6,311.93H0l8.65-21.35Zm-2.71,7L9,303.85h4.69Z"/><path class="cls-2" d="M35.31,298.32,40,290.58H46.5L38,304.1v7.83H32.6V304.1l-8.43-13.52H30.6Z"/><path class="cls-2" d="M73.76,290.58v12a11.12,11.12,0,0,1-.64,3.83,8.83,8.83,0,0,1-1.89,3.1,8.73,8.73,0,0,1-3.08,2.06,12.12,12.12,0,0,1-8.45,0,8.6,8.6,0,0,1-3.07-2.06,8.76,8.76,0,0,1-1.86-3.1,11.36,11.36,0,0,1-.63-3.83v-12h5.47v11.68a5.18,5.18,0,0,0,1.1,3.56,4.09,4.09,0,0,0,3.23,1.23,4.18,4.18,0,0,0,3.27-1.23,5.13,5.13,0,0,0,1.11-3.56V290.58Z"/><path class="cls-2" d="M83,290.58H93a10.58,10.58,0,0,1,4.39.85,8.64,8.64,0,0,1,3.16,2.31,9.91,9.91,0,0,1,1.91,3.41,13.55,13.55,0,0,1,0,8.23,9.86,9.86,0,0,1-1.91,3.4,8.85,8.85,0,0,1-3.16,2.3,10.74,10.74,0,0,1-4.39.85H83Zm5.48,5.31v10.75h4a5.55,5.55,0,0,0,2.16-.39,4.43,4.43,0,0,0,1.56-1.11,4.71,4.71,0,0,0,.95-1.7,7.15,7.15,0,0,0,.31-2.19,5.77,5.77,0,0,0-1.26-3.88,4.6,4.6,0,0,0-3.72-1.48Z"/><path class="cls-2" d="M122.84,290.58l8.62,21.35h-6l-1.18-3.12h-8.4l-1.18,3.12h-6l8.65-21.35Zm-2.71,7-2.35,6.27h4.68Z"/><path class="cls-2" d="M139.4,311.93V290.58h4.65l9.53,11.93V290.58H159v21.35H154.4L144.87,300v11.91Z"/><path class="cls-2" d="M168.6,290.58h9.91a10.66,10.66,0,0,1,4.4.85,8.81,8.81,0,0,1,3.16,2.31,9.89,9.89,0,0,1,1.9,3.41,13.55,13.55,0,0,1,0,8.23,9.84,9.84,0,0,1-1.9,3.4,9,9,0,0,1-3.16,2.3,10.83,10.83,0,0,1-4.4.85H168.6Zm5.48,5.31v10.75h4a5.55,5.55,0,0,0,2.16-.39,4.43,4.43,0,0,0,1.56-1.11,4.71,4.71,0,0,0,1-1.7,7.15,7.15,0,0,0,.31-2.19,5.77,5.77,0,0,0-1.26-3.88,4.6,4.6,0,0,0-3.72-1.48Z"/><path class="cls-2" d="M196.28,301.25a10.44,10.44,0,0,1,.9-4.31,11.42,11.42,0,0,1,2.45-3.52,11.75,11.75,0,0,1,3.61-2.38,11.46,11.46,0,0,1,8.76,0,11.75,11.75,0,0,1,3.61,2.38,11.23,11.23,0,0,1,2.44,3.52,10.88,10.88,0,0,1,0,8.62,11.12,11.12,0,0,1-2.44,3.52,11.57,11.57,0,0,1-3.61,2.38,11.34,11.34,0,0,1-8.76,0,11.57,11.57,0,0,1-3.61-2.38,11.31,11.31,0,0,1-2.45-3.52A10.44,10.44,0,0,1,196.28,301.25Zm5.52,0a5.58,5.58,0,0,0,.46,2.27,5.52,5.52,0,0,0,1.24,1.85,6,6,0,0,0,1.85,1.23,5.66,5.66,0,0,0,2.26.45,5.73,5.73,0,0,0,2.28-.45,5.82,5.82,0,0,0,1.84-1.23,5.65,5.65,0,0,0,1.23-1.85,5.88,5.88,0,0,0-1.23-6.39,5.82,5.82,0,0,0-1.84-1.23,5.73,5.73,0,0,0-2.28-.45,5.66,5.66,0,0,0-2.26.45,6,6,0,0,0-1.85,1.23,5.85,5.85,0,0,0-1.7,4.12Z"/><path class="cls-2" d="M252.5,290.58l8.62,21.35h-6L254,308.81h-8.4l-1.18,3.12h-6l8.65-21.35Zm-2.71,7-2.36,6.27h4.68Z"/><path class="cls-2" d="M302.06,306.21a11.07,11.07,0,0,1-1.75,2.49,11.2,11.2,0,0,1-2.35,1.93,12.6,12.6,0,0,1-2.85,1.26,11.33,11.33,0,0,1-7.54-.43,11.57,11.57,0,0,1-3.61-2.38,11.31,11.31,0,0,1-2.45-3.52,10.77,10.77,0,0,1,0-8.62,11.42,11.42,0,0,1,2.45-3.52,11.75,11.75,0,0,1,3.61-2.38,11.37,11.37,0,0,1,7.53-.42,12.16,12.16,0,0,1,2.83,1.24,10.91,10.91,0,0,1,2.36,1.92,12.09,12.09,0,0,1,1.75,2.46l-5,2.25a5.6,5.6,0,0,0-2.06-2.21,5.77,5.77,0,0,0-3.05-.83,5.66,5.66,0,0,0-2.26.45,6,6,0,0,0-1.85,1.23,5.84,5.84,0,0,0-1.24,6.39,5.52,5.52,0,0,0,1.24,1.85,6,6,0,0,0,1.85,1.23,6,6,0,0,0,5.32-.38,5.55,5.55,0,0,0,2.05-2.2Z"/><path class="cls-2" d="M309.26,301.25a10.29,10.29,0,0,1,.91-4.31,11.26,11.26,0,0,1,2.45-3.52,11.75,11.75,0,0,1,3.61-2.38,11.13,11.13,0,0,1,4.36-.87,11.25,11.25,0,0,1,4.4.87,11.87,11.87,0,0,1,3.61,2.38,11.4,11.4,0,0,1,2.44,3.52,10.88,10.88,0,0,1,0,8.62,11.28,11.28,0,0,1-2.44,3.52,11.69,11.69,0,0,1-3.61,2.38,11.26,11.26,0,0,1-4.4.88,11.14,11.14,0,0,1-4.36-.88,11.57,11.57,0,0,1-3.61-2.38,11.14,11.14,0,0,1-2.45-3.52A10.29,10.29,0,0,1,309.26,301.25Zm5.53,0a5.75,5.75,0,0,0,.45,2.27,5.55,5.55,0,0,0,1.25,1.85,5.87,5.87,0,0,0,1.85,1.23,5.65,5.65,0,0,0,2.25.45,5.74,5.74,0,0,0,4.12-1.68,5.84,5.84,0,0,0,1.24-1.85,6,6,0,0,0,0-4.54,6,6,0,0,0-1.24-1.85,5.74,5.74,0,0,0-4.12-1.68,5.65,5.65,0,0,0-2.25.45,5.87,5.87,0,0,0-1.85,1.23,5.65,5.65,0,0,0-1.25,1.85A5.78,5.78,0,0,0,314.79,301.25Z"/><path class="cls-2" d="M340.49,311.93V290.58h4.65l9.53,11.93V290.58h5.45v21.35h-4.63L346,300v11.91Z"/><path class="cls-2" d="M390.14,306.21a11.4,11.4,0,0,1-1.75,2.49,11.2,11.2,0,0,1-2.35,1.93,12.6,12.6,0,0,1-2.85,1.26,11.33,11.33,0,0,1-7.54-.43,11.57,11.57,0,0,1-3.61-2.38,11.14,11.14,0,0,1-2.45-3.52,10.66,10.66,0,0,1,0-8.62,11.26,11.26,0,0,1,2.45-3.52,11.75,11.75,0,0,1,3.61-2.38,11.37,11.37,0,0,1,7.53-.42,12.16,12.16,0,0,1,2.83,1.24,10.85,10.85,0,0,1,2.35,1.92,11.36,11.36,0,0,1,1.75,2.46l-5,2.25a5.6,5.6,0,0,0-2.06-2.21,5.78,5.78,0,0,0-3.06-.83,5.65,5.65,0,0,0-2.25.45,5.87,5.87,0,0,0-1.85,1.23,5.65,5.65,0,0,0-1.25,1.85,6,6,0,0,0,0,4.54,5.55,5.55,0,0,0,1.25,1.85,5.87,5.87,0,0,0,1.85,1.23,5.73,5.73,0,0,0,7.37-2.58Z"/><path class="cls-2" d="M408.78,290.58a9.37,9.37,0,0,1,3.56.61,6.83,6.83,0,0,1,2.49,1.69,6.64,6.64,0,0,1,1.46,2.49,9.35,9.35,0,0,1,.48,3,8.87,8.87,0,0,1-.26,2.19,7.43,7.43,0,0,1-.78,2,7,7,0,0,1-3.17,2.92l4.62,6.46h-6.54l-4.05-5.72H403.8v5.72h-5.45V290.58Zm-5,5v5.69h4.68a3.87,3.87,0,0,0,1.4-.23,2.61,2.61,0,0,0,.93-.62,2.37,2.37,0,0,0,.52-.9,3.51,3.51,0,0,0,.16-1.07,3.13,3.13,0,0,0-.68-2.05,2.88,2.88,0,0,0-2.33-.82Z"/><path class="cls-2" d="M425.62,290.58H442v5.31H431.09V299h9v5h-9v2.73H442v5.29H425.62Z"/><path class="cls-2" d="M449.65,290.58h18.77v5.31h-6.65v16H456.3v-16h-6.65Z"/><path class="cls-2" d="M485.83,290.58l8.62,21.35h-6l-1.18-3.12h-8.4l-1.18,3.12h-6l8.65-21.35Zm-2.71,7-2.35,6.27h4.68Z"/><path class="cls-2" d="M512.82,290.58a9.41,9.41,0,0,1,3.56.61,6.83,6.83,0,0,1,2.49,1.69,6.91,6.91,0,0,1,1.46,2.49,9.54,9.54,0,0,1,.22,5.2,7.43,7.43,0,0,1-.78,2,7.21,7.21,0,0,1-1.31,1.67,6.87,6.87,0,0,1-1.87,1.25l4.63,6.46h-6.54l-4-5.72h-2.79v5.72h-5.45V290.58Zm-5,5v5.69h4.68a3.81,3.81,0,0,0,1.39-.23,2.45,2.45,0,0,0,.93-.62,2.24,2.24,0,0,0,.52-.9,3.52,3.52,0,0,0,.17-1.07,3.08,3.08,0,0,0-.69-2.05,2.85,2.85,0,0,0-2.32-.82Z"/><path class="cls-2" d="M549.11,290.58v21.35h-5.47V290.58Z"/><path class="cls-2" d="M558.69,290.58h9.91a10.61,10.61,0,0,1,4.39.85,8.72,8.72,0,0,1,3.16,2.31,9.73,9.73,0,0,1,1.9,3.41,13.35,13.35,0,0,1,0,8.23,9.68,9.68,0,0,1-1.9,3.4,8.94,8.94,0,0,1-3.16,2.3,10.78,10.78,0,0,1-4.39.85h-9.91Zm5.47,5.31v10.75h4a5.55,5.55,0,0,0,2.16-.39,4.43,4.43,0,0,0,1.56-1.11,4.69,4.69,0,0,0,.94-1.7,7.15,7.15,0,0,0,.32-2.19,5.77,5.77,0,0,0-1.26-3.88,4.6,4.6,0,0,0-3.72-1.48Z"/><path class="cls-2" d="M587.38,290.58h16.39v5.31H592.85V299h9v5h-9v2.73h10.92v5.29H587.38Z"/><path class="cls-2" d="M625.15,290.58l8.62,21.35h-6l-1.18-3.12h-8.4L617,311.93h-6l8.65-21.35Zm-2.71,7-2.36,6.27h4.68Z"/><path class="cls-2" d="M645.13,305.52v.14a1.17,1.17,0,0,0,.22.64,2.07,2.07,0,0,0,.65.63,4.19,4.19,0,0,0,1.12.48,6,6,0,0,0,1.62.19,3.85,3.85,0,0,0,2.12-.42,1.16,1.16,0,0,0,.59-.89,1.39,1.39,0,0,0-.85-1.18,16.69,16.69,0,0,0-2.79-1.15c-.86-.27-1.75-.6-2.67-1a12.09,12.09,0,0,1-2.53-1.38,7.23,7.23,0,0,1-1.9-2,5.12,5.12,0,0,1-.76-2.82,6,6,0,0,1,.62-2.75,6.15,6.15,0,0,1,1.72-2.08,8,8,0,0,1,2.65-1.33,11.52,11.52,0,0,1,3.36-.46,12,12,0,0,1,3.46.48,8.46,8.46,0,0,1,2.77,1.38,6.68,6.68,0,0,1,1.83,2.17,6,6,0,0,1,.67,2.86v.31H651.7v-.2a1.73,1.73,0,0,0-.21-.79,2.34,2.34,0,0,0-.61-.74,3.22,3.22,0,0,0-1-.53,4.46,4.46,0,0,0-1.44-.21,3.41,3.41,0,0,0-2,.45,1.12,1.12,0,0,0,.21,2.07,19,19,0,0,0,2.72,1.09c.73.26,1.56.58,2.49.95a13,13,0,0,1,2.62,1.42,8.23,8.23,0,0,1,2,2.11,5.23,5.23,0,0,1,.83,3,5.5,5.5,0,0,1-2.42,4.73,8.45,8.45,0,0,1-2.68,1.21,13.32,13.32,0,0,1-3.38.41,14,14,0,0,1-3.57-.44,9.36,9.36,0,0,1-2.88-1.27,6.18,6.18,0,0,1-1.91-2.07,5.51,5.51,0,0,1-.7-2.79v-.25Z"/><path class="cls-1" d="M328.7,177.23H178.81V124.54h43v9.65H328.7a45.58,45.58,0,0,0,0-91.15H178.81V0H328.7a88.62,88.62,0,0,1,0,177.23Z"/><path class="cls-2" d="M283.82,88.61a45.49,45.49,0,0,1,17.56-35.93h-53a88.84,88.84,0,0,0,0,71.86h53A45.48,45.48,0,0,1,283.82,88.61Z"/><path class="cls-1" d="M370.43,177.23H479.28v-43H415a99.21,99.21,0,0,1-44.54,43Z"/><path class="cls-1" d="M370.43,0A99.21,99.21,0,0,1,415,43h21.27v9.64h43V0Z"/><path class="cls-2" d="M292.62,88.61a36.4,36.4,0,0,0,72.8,0Z"/></svg>