<svg id="Layer_1" data-name="Layer 1" xmlns="http://www.w3.org/2000/svg" viewBox="0 0 820 315"><defs><style>.cls-1{fill:#0c1f28;}.cls-2{fill:#069e2d;}</style></defs><path class="cls-1" d="M81.82,230.63h20.77a22.48,22.48,0,0,1,9.21,1.78,18.58,18.58,0,0,1,6.63,4.85,20.94,20.94,0,0,1,4,7.15,28.29,28.29,0,0,1,0,17.27,20.62,20.62,0,0,1-4,7.12,18.75,18.75,0,0,1-6.63,4.82,22.48,22.48,0,0,1-9.21,1.78H81.82ZM93.3,241.77v22.55h8.43a11.6,11.6,0,0,0,4.54-.83,9,9,0,0,0,3.27-2.33,9.78,9.78,0,0,0,2-3.55,15.06,15.06,0,0,0,.66-4.59,12.12,12.12,0,0,0-2.64-8.15q-2.64-3.1-7.81-3.1Z"/><path class="cls-1" d="M184.83,263.4a23.43,23.43,0,0,1-8.61,9.27,24.41,24.41,0,0,1-6,2.64,23.57,23.57,0,0,1-6.66.95,23.08,23.08,0,0,1-9.15-1.84,24.37,24.37,0,0,1-7.58-5,23.83,23.83,0,0,1-5.14-7.38,22.54,22.54,0,0,1,0-18.07,23.94,23.94,0,0,1,5.14-7.38,24.37,24.37,0,0,1,7.58-5,23.65,23.65,0,0,1,15.78-.89,25.52,25.52,0,0,1,5.94,2.61,22.72,22.72,0,0,1,4.93,4,24.5,24.5,0,0,1,3.68,5.16l-10.45,4.71A11.71,11.71,0,0,0,170,242.6a12,12,0,0,0-6.4-1.75,11.77,11.77,0,0,0-4.74,1,12.49,12.49,0,0,0-3.87,2.58,11.8,11.8,0,0,0-2.61,3.87,12.43,12.43,0,0,0,0,9.53,11.8,11.8,0,0,0,2.61,3.87,12.7,12.7,0,0,0,3.87,2.59,12.58,12.58,0,0,0,11.17-.81,11.78,11.78,0,0,0,4.3-4.62Z"/><path class="cls-1" d="M274.25,263.4a23.62,23.62,0,0,1-8.61,9.27,24.65,24.65,0,0,1-6,2.64,23.46,23.46,0,0,1-6.66.95,23.12,23.12,0,0,1-9.15-1.84,24.37,24.37,0,0,1-7.58-5,23.63,23.63,0,0,1-5.13-7.38,22.43,22.43,0,0,1,0-18.07,23.75,23.75,0,0,1,5.13-7.38,24.37,24.37,0,0,1,7.58-5,23.65,23.65,0,0,1,15.78-.89,25.52,25.52,0,0,1,5.94,2.61,22.77,22.77,0,0,1,4.94,4,24.82,24.82,0,0,1,3.67,5.16l-10.45,4.71a11.71,11.71,0,0,0-4.33-4.62,11.92,11.92,0,0,0-6.4-1.75,11.72,11.72,0,0,0-4.73,1,12.42,12.42,0,0,0-3.88,2.58,11.8,11.8,0,0,0-2.61,3.87,12.43,12.43,0,0,0,0,9.53,11.8,11.8,0,0,0,2.61,3.87,12.62,12.62,0,0,0,3.88,2.59,12,12,0,0,0,15.46-5.43Z"/><path class="cls-1" d="M289.34,253a21.83,21.83,0,0,1,1.89-9,23.94,23.94,0,0,1,5.14-7.38,24.37,24.37,0,0,1,7.58-5,23.82,23.82,0,0,1,18.36,0,24.48,24.48,0,0,1,7.58,5A23.33,23.33,0,0,1,335,244a22.76,22.76,0,0,1,0,18.07,23.22,23.22,0,0,1-5.1,7.38,24.48,24.48,0,0,1-7.58,5,23.82,23.82,0,0,1-18.36,0,24.37,24.37,0,0,1-7.58-5,23.83,23.83,0,0,1-5.14-7.38A21.82,21.82,0,0,1,289.34,253Zm11.59,0a12.11,12.11,0,0,0,.95,4.76,11.8,11.8,0,0,0,2.61,3.87,12.7,12.7,0,0,0,3.87,2.59,12.55,12.55,0,0,0,9.53,0,12.37,12.37,0,0,0,3.85-2.59,12.3,12.3,0,0,0,0-17.27,12.17,12.17,0,0,0-3.85-2.58,12.42,12.42,0,0,0-9.53,0,12.49,12.49,0,0,0-3.87,2.58,11.8,11.8,0,0,0-2.61,3.87A12.12,12.12,0,0,0,300.93,253Z"/><path class="cls-1" d="M354.82,275.4V230.63h9.76l20,25v-25H396V275.4h-9.7l-20-25v25Z"/><path class="cls-1" d="M458.93,263.4a23.62,23.62,0,0,1-8.61,9.27,24.65,24.65,0,0,1-6,2.64,23.46,23.46,0,0,1-6.66.95,23.12,23.12,0,0,1-9.15-1.84,24.37,24.37,0,0,1-7.58-5,23.83,23.83,0,0,1-5.14-7.38,22.54,22.54,0,0,1,0-18.07A23.94,23.94,0,0,1,421,236.6a24.37,24.37,0,0,1,7.58-5,23.65,23.65,0,0,1,15.78-.89,25.52,25.52,0,0,1,5.94,2.61,22.48,22.48,0,0,1,4.93,4,24.5,24.5,0,0,1,3.68,5.16l-10.45,4.71a11.71,11.71,0,0,0-4.33-4.62,11.92,11.92,0,0,0-6.4-1.75,11.72,11.72,0,0,0-4.73,1,12.42,12.42,0,0,0-3.88,2.58,11.8,11.8,0,0,0-2.61,3.87,12.43,12.43,0,0,0,0,9.53,11.8,11.8,0,0,0,2.61,3.87,12.62,12.62,0,0,0,3.88,2.59,12,12,0,0,0,15.46-5.43Z"/><path class="cls-1" d="M498,230.63a19.67,19.67,0,0,1,7.46,1.29,14.6,14.6,0,0,1,5.22,3.53,14.41,14.41,0,0,1,3.07,5.23,19.88,19.88,0,0,1,.46,10.9,16.23,16.23,0,0,1-1.63,4.16,15.11,15.11,0,0,1-2.76,3.5,14.24,14.24,0,0,1-3.9,2.61l9.7,13.55H501.91l-8.49-12h-5.86v12H476.14V230.63Zm-10.45,10.45V253h9.82a7.89,7.89,0,0,0,2.92-.49,5.36,5.36,0,0,0,1.95-1.29,5,5,0,0,0,1.1-1.9,7.65,7.65,0,0,0,.34-2.24,6.48,6.48,0,0,0-1.44-4.3c-.95-1.15-2.58-1.72-4.87-1.72Z"/><path class="cls-1" d="M533.3,230.63h34.38v11.14h-22.9v6.42H563.6v10.39H544.78v5.74h22.9V275.4H533.3Z"/><path class="cls-1" d="M583.69,230.63h39.37v11.14H609.11V275.4H597.64V241.77H583.69Z"/><path class="cls-1" d="M638.27,253a21.83,21.83,0,0,1,1.89-9,23.78,23.78,0,0,1,5.14-7.38,24.32,24.32,0,0,1,7.57-5,23.84,23.84,0,0,1,18.37,0,24.32,24.32,0,0,1,7.57,5,23.36,23.36,0,0,1,5.11,7.38,22.76,22.76,0,0,1,0,18.07,23.25,23.25,0,0,1-5.11,7.38,24.32,24.32,0,0,1-7.57,5,23.84,23.84,0,0,1-18.37,0,24.32,24.32,0,0,1-7.57-5,23.66,23.66,0,0,1-5.14-7.38A21.82,21.82,0,0,1,638.27,253Zm11.59,0a12.11,12.11,0,0,0,.95,4.76,11.8,11.8,0,0,0,2.61,3.87,12.7,12.7,0,0,0,3.87,2.59,11.9,11.9,0,0,0,4.74.94,12,12,0,0,0,4.79-.94,12.32,12.32,0,0,0,3.84-2.59,12.18,12.18,0,0,0-3.84-19.85,11.87,11.87,0,0,0-4.79-1,11.74,11.74,0,0,0-4.74,1,12.49,12.49,0,0,0-3.87,2.58,11.8,11.8,0,0,0-2.61,3.87A12.12,12.12,0,0,0,649.86,253Z"/><path class="cls-1" d="M713.16,262v.28a2.46,2.46,0,0,0,.46,1.35,4.5,4.5,0,0,0,1.38,1.32,8.17,8.17,0,0,0,2.35,1,12.61,12.61,0,0,0,3.39.4c2.14,0,3.62-.3,4.44-.89a2.4,2.4,0,0,0,1.24-1.87,3,3,0,0,0-1.78-2.46,34.5,34.5,0,0,0-5.85-2.41q-2.7-.87-5.6-2a25.61,25.61,0,0,1-5.31-2.9,15,15,0,0,1-4-4.19,10.73,10.73,0,0,1-1.58-5.91,12.53,12.53,0,0,1,1.3-5.77,12.81,12.81,0,0,1,3.61-4.36,17.06,17.06,0,0,1,5.54-2.78,24.19,24.19,0,0,1,7.06-1,25.23,25.23,0,0,1,7.26,1,17.48,17.48,0,0,1,5.79,2.89,14.06,14.06,0,0,1,3.85,4.57,12.64,12.64,0,0,1,1.41,6v.64h-11.2v-.41a3.66,3.66,0,0,0-.43-1.66,4.55,4.55,0,0,0-1.29-1.55,6.91,6.91,0,0,0-2.15-1.12,9.42,9.42,0,0,0-3-.43,7.13,7.13,0,0,0-4.19,1,2.34,2.34,0,0,0,.43,4.33,41.83,41.83,0,0,0,5.71,2.3q2.29.79,5.22,2a26.18,26.18,0,0,1,5.48,3,17.09,17.09,0,0,1,4.31,4.42,11.08,11.08,0,0,1,1.75,6.28,11.61,11.61,0,0,1-5.08,9.93,17.82,17.82,0,0,1-5.63,2.53,27.69,27.69,0,0,1-7.08.86,29.28,29.28,0,0,1-7.49-.92,19.11,19.11,0,0,1-6-2.67,13.07,13.07,0,0,1-4-4.33,11.74,11.74,0,0,1-1.46-5.86V262Z"/><path class="cls-2" d="M95.31,291.91l8.62,21.35H98l-1.18-3.12h-8.4l-1.18,3.12h-6l8.65-21.35Zm-2.71,7-2.35,6.26h4.68Z"/><path class="cls-2" d="M116.55,299.65l4.74-7.74h6.46l-8.46,13.52v7.83h-5.45v-7.83l-8.43-13.52h6.43Z"/><path class="cls-2" d="M155,291.91v12a11.2,11.2,0,0,1-.65,3.83,8.54,8.54,0,0,1-5,5.16,12.3,12.3,0,0,1-8.46,0,8.71,8.71,0,0,1-3.07-2.07,8.81,8.81,0,0,1-1.86-3.09,11.44,11.44,0,0,1-.63-3.83v-12h5.48V303.6a5.17,5.17,0,0,0,1.09,3.55,4.08,4.08,0,0,0,3.23,1.24,4.15,4.15,0,0,0,3.27-1.24,5.12,5.12,0,0,0,1.11-3.55V291.91Z"/><path class="cls-2" d="M164.29,291.91h9.9a10.66,10.66,0,0,1,4.4.85,8.72,8.72,0,0,1,3.16,2.31,10,10,0,0,1,1.9,3.41,12.89,12.89,0,0,1,.64,4.1,13.1,13.1,0,0,1-.64,4.14,9.89,9.89,0,0,1-1.9,3.39,8.94,8.94,0,0,1-3.16,2.3,10.66,10.66,0,0,1-4.4.85h-9.9Zm5.47,5.31V308h4a5.64,5.64,0,0,0,2.17-.4,4.43,4.43,0,0,0,1.56-1.11,4.61,4.61,0,0,0,.94-1.7,7.11,7.11,0,0,0,.31-2.19,5.81,5.81,0,0,0-1.25-3.88,4.61,4.61,0,0,0-3.73-1.48Z"/><path class="cls-2" d="M204.08,291.91l8.62,21.35h-6l-1.18-3.12h-8.4L196,313.26h-6l8.65-21.35Zm-2.71,7L199,305.18h4.68Z"/><path class="cls-2" d="M220.64,313.26V291.91h4.65l9.53,11.93V291.91h5.45v21.35h-4.63l-9.52-11.91v11.91Z"/><path class="cls-2" d="M249.85,291.91h9.91a10.61,10.61,0,0,1,4.39.85,8.72,8.72,0,0,1,3.16,2.31,10,10,0,0,1,1.9,3.41,12.9,12.9,0,0,1,.65,4.1,13.1,13.1,0,0,1-.65,4.14,9.89,9.89,0,0,1-1.9,3.39,8.94,8.94,0,0,1-3.16,2.3,10.61,10.61,0,0,1-4.39.85h-9.91Zm5.47,5.31V308h4a5.56,5.56,0,0,0,2.17-.4,4.43,4.43,0,0,0,1.56-1.11,4.61,4.61,0,0,0,.94-1.7,7.1,7.1,0,0,0,.32-2.19,5.77,5.77,0,0,0-1.26-3.88,4.61,4.61,0,0,0-3.73-1.48Z"/><path class="cls-2" d="M277.52,302.58a10.44,10.44,0,0,1,.9-4.31,11.26,11.26,0,0,1,2.45-3.51,11.72,11.72,0,0,1,3.61-2.39,11.46,11.46,0,0,1,8.76,0,11.76,11.76,0,0,1,3.62,2.39,11,11,0,0,1,2.43,3.51,10.88,10.88,0,0,1,0,8.62,11,11,0,0,1-2.43,3.52,11.56,11.56,0,0,1-3.62,2.38,11.34,11.34,0,0,1-8.76,0,11.51,11.51,0,0,1-3.61-2.38,11.19,11.19,0,0,1-2.45-3.52A10.4,10.4,0,0,1,277.52,302.58Zm5.53,0a5.75,5.75,0,0,0,.45,2.27,5.52,5.52,0,0,0,1.24,1.85,6,6,0,0,0,1.85,1.23,5.83,5.83,0,0,0,4.54,0A5.71,5.71,0,0,0,293,306.7a5.65,5.65,0,0,0,1.23-1.85,5.82,5.82,0,0,0-7.61-7.62,6,6,0,0,0-1.85,1.23,5.63,5.63,0,0,0-1.24,1.85A5.78,5.78,0,0,0,283.05,302.58Z"/><path class="cls-2" d="M333.74,291.91l8.62,21.35h-6l-1.17-3.12h-8.41l-1.17,3.12h-6l8.65-21.35Zm-2.71,7-2.36,6.26h4.69Z"/><path class="cls-2" d="M383.31,307.54a11.75,11.75,0,0,1-1.75,2.49A11.26,11.26,0,0,1,379.2,312a11.6,11.6,0,0,1-2.85,1.26,11.19,11.19,0,0,1-3.17.45,11,11,0,0,1-4.37-.88,11.51,11.51,0,0,1-3.61-2.38,11.19,11.19,0,0,1-2.45-3.52,10.77,10.77,0,0,1,0-8.62,11.26,11.26,0,0,1,2.45-3.51,11.72,11.72,0,0,1,3.61-2.39,11.37,11.37,0,0,1,7.53-.42,12,12,0,0,1,2.83,1.25,10.86,10.86,0,0,1,2.36,1.91,12.09,12.09,0,0,1,1.75,2.46l-5,2.25a5.72,5.72,0,0,0-5.12-3,5.7,5.7,0,0,0-2.26.45,6,6,0,0,0-1.85,1.23,5.63,5.63,0,0,0-1.24,1.85,6,6,0,0,0,0,4.54,5.52,5.52,0,0,0,1.24,1.85,6,6,0,0,0,1.85,1.23,5.54,5.54,0,0,0,2.26.46,5.69,5.69,0,0,0,5.12-3Z"/><path class="cls-2" d="M390.51,302.58a10.44,10.44,0,0,1,.9-4.31,11.26,11.26,0,0,1,2.45-3.51,11.6,11.6,0,0,1,3.61-2.39,11.46,11.46,0,0,1,8.76,0,11.6,11.6,0,0,1,3.61,2.39,11.07,11.07,0,0,1,2.44,3.51,10.88,10.88,0,0,1,0,8.62,11,11,0,0,1-2.44,3.52,11.4,11.4,0,0,1-3.61,2.38,11.34,11.34,0,0,1-8.76,0,11.4,11.4,0,0,1-3.61-2.38,11.19,11.19,0,0,1-2.45-3.52A10.4,10.4,0,0,1,390.51,302.58Zm5.52,0a5.58,5.58,0,0,0,.46,2.27,5.52,5.52,0,0,0,1.24,1.85,6,6,0,0,0,1.85,1.23,5.5,5.5,0,0,0,2.26.46,5.56,5.56,0,0,0,2.28-.46A5.82,5.82,0,0,0,406,306.7a5.65,5.65,0,0,0,1.23-1.85,5.88,5.88,0,0,0-1.23-6.39,5.82,5.82,0,0,0-1.84-1.23,5.73,5.73,0,0,0-2.28-.45,5.66,5.66,0,0,0-2.26.45,6,6,0,0,0-1.85,1.23,5.85,5.85,0,0,0-1.7,4.12Z"/><path class="cls-2" d="M421.73,313.26V291.91h4.66l9.52,11.93V291.91h5.45v21.35h-4.63l-9.52-11.91v11.91Z"/><path class="cls-2" d="M471.38,307.54a11.07,11.07,0,0,1-1.75,2.49,11.2,11.2,0,0,1-2.35,1.93,11.77,11.77,0,0,1-2.85,1.26,11.19,11.19,0,0,1-3.17.45,11,11,0,0,1-4.37-.88,11.4,11.4,0,0,1-3.61-2.38,11.19,11.19,0,0,1-2.45-3.52,10.77,10.77,0,0,1,0-8.62,11.26,11.26,0,0,1,2.45-3.51,11.6,11.6,0,0,1,3.61-2.39,11.37,11.37,0,0,1,7.53-.42,12,12,0,0,1,2.83,1.25,10.86,10.86,0,0,1,2.36,1.91,12.09,12.09,0,0,1,1.75,2.46l-5,2.25a5.72,5.72,0,0,0-5.12-3,5.66,5.66,0,0,0-2.26.45,6,6,0,0,0-1.85,1.23,5.63,5.63,0,0,0-1.24,1.85,5.83,5.83,0,0,0,0,4.54,5.52,5.52,0,0,0,1.24,1.85,6,6,0,0,0,1.85,1.23,5.5,5.5,0,0,0,2.26.46,5.69,5.69,0,0,0,5.12-3Z"/><path class="cls-2" d="M490,291.91a9.37,9.37,0,0,1,3.56.61,6.74,6.74,0,0,1,4,4.18,9.54,9.54,0,0,1,.22,5.2,8.17,8.17,0,0,1-.78,2,7,7,0,0,1-1.32,1.67,6.75,6.75,0,0,1-1.86,1.25l4.63,6.46h-6.54l-4.06-5.72H485v5.72H479.6V291.91Zm-5,5v5.69h4.68a3.63,3.63,0,0,0,1.4-.23,2.49,2.49,0,0,0,.93-.62,2.24,2.24,0,0,0,.52-.9,3.47,3.47,0,0,0,.16-1.07,3.07,3.07,0,0,0-.68-2.05,2.88,2.88,0,0,0-2.33-.82Z"/><path class="cls-2" d="M506.86,291.91h16.39v5.31H512.33v3.06h9v5h-9V308h10.92v5.28H506.86Z"/><path class="cls-2" d="M530.89,291.91h18.77v5.31H543v16h-5.47v-16h-6.65Z"/><path class="cls-2" d="M567.07,291.91l8.62,21.35h-6l-1.18-3.12h-8.4L559,313.26h-6l8.65-21.35Zm-2.71,7L562,305.18h4.68Z"/><path class="cls-2" d="M594.06,291.91a9.41,9.41,0,0,1,3.56.61,7,7,0,0,1,2.49,1.69,6.77,6.77,0,0,1,1.46,2.49,9.35,9.35,0,0,1,.48,3,8.87,8.87,0,0,1-.26,2.19,7.43,7.43,0,0,1-.78,2,7,7,0,0,1-3.17,2.92l4.62,6.46h-6.54l-4-5.72h-2.79v5.72h-5.45V291.91Zm-5,5v5.69h4.68a3.58,3.58,0,0,0,1.39-.23,2.45,2.45,0,0,0,.94-.62,2.37,2.37,0,0,0,.52-.9,3.47,3.47,0,0,0,.16-1.07,3.13,3.13,0,0,0-.68-2.05,2.89,2.89,0,0,0-2.33-.82Z"/><path class="cls-2" d="M630.35,291.91v21.35h-5.47V291.91Z"/><path class="cls-2" d="M639.93,291.91h9.91a10.58,10.58,0,0,1,4.39.85,8.76,8.76,0,0,1,3.17,2.31,10.15,10.15,0,0,1,1.9,3.41,12.89,12.89,0,0,1,.64,4.1,13.1,13.1,0,0,1-.64,4.14,10.05,10.05,0,0,1-1.9,3.39,9,9,0,0,1-3.17,2.3,10.58,10.58,0,0,1-4.39.85h-9.91Zm5.48,5.31V308h4a5.55,5.55,0,0,0,2.16-.4,4.43,4.43,0,0,0,1.56-1.11,4.63,4.63,0,0,0,1-1.7,7.11,7.11,0,0,0,.31-2.19,5.77,5.77,0,0,0-1.26-3.88,4.6,4.6,0,0,0-3.72-1.48Z"/><path class="cls-2" d="M668.62,291.91H685v5.31H674.09v3.06h9v5h-9V308H685v5.28H668.62Z"/><path class="cls-2" d="M706.39,291.91,715,313.26h-6l-1.17-3.12h-8.41l-1.17,3.12h-6L701,291.91Zm-2.71,7-2.35,6.26H706Z"/><path class="cls-2" d="M726.37,306.85V307a1.15,1.15,0,0,0,.22.64,2,2,0,0,0,.66.63,4,4,0,0,0,1.12.48,5.88,5.88,0,0,0,1.61.19,3.85,3.85,0,0,0,2.12-.42,1.13,1.13,0,0,0,.59-.89,1.39,1.39,0,0,0-.85-1.18,16.32,16.32,0,0,0-2.79-1.15c-.86-.27-1.74-.59-2.67-1a12.09,12.09,0,0,1-2.53-1.38,7.24,7.24,0,0,1-1.9-2,5.12,5.12,0,0,1-.75-2.82,6,6,0,0,1,.61-2.75,6.16,6.16,0,0,1,1.73-2.08,8.19,8.19,0,0,1,2.64-1.33,11.52,11.52,0,0,1,3.36-.46A12,12,0,0,1,733,292a8.41,8.41,0,0,1,2.76,1.38,6.64,6.64,0,0,1,1.84,2.18,6.09,6.09,0,0,1,.67,2.86v.3h-5.34v-.19a1.74,1.74,0,0,0-.21-.8,2.22,2.22,0,0,0-.61-.74,3.44,3.44,0,0,0-1-.53,4.46,4.46,0,0,0-1.44-.21,3.38,3.38,0,0,0-2,.45,1.27,1.27,0,0,0-.61,1,1.26,1.26,0,0,0,.81,1.07,20.29,20.29,0,0,0,2.73,1.1c.72.25,1.56.57,2.49.94a13.17,13.17,0,0,1,2.61,1.42,8.07,8.07,0,0,1,2,2.11,5.24,5.24,0,0,1,.84,3,5.54,5.54,0,0,1-2.43,4.73,8.45,8.45,0,0,1-2.68,1.21,13.32,13.32,0,0,1-3.38.41,14,14,0,0,1-3.57-.44,9.07,9.07,0,0,1-2.87-1.27,6.21,6.21,0,0,1-1.92-2.07,5.61,5.61,0,0,1-.7-2.79v-.25Z"/><path class="cls-1" d="M409.94,178.56H260.06V125.88h43v9.64H409.94a45.58,45.58,0,0,0,0-91.15H260.06v-43H409.94a88.62,88.62,0,0,1,0,177.23Z"/><path class="cls-2" d="M365.06,89.94A45.49,45.49,0,0,1,382.62,54h-53a88.76,88.76,0,0,0,0,71.87h53A45.49,45.49,0,0,1,365.06,89.94Z"/><path class="cls-1" d="M451.67,178.56H560.52v-43H496.21a99.21,99.21,0,0,1-44.54,43Z"/><path class="cls-2" d="M373.87,89.94a36.4,36.4,0,0,0,72.8,0Z"/><path class="cls-1" d="M451.67,1.33a99.21,99.21,0,0,1,44.54,43h21.27V54h43V1.33Z"/></svg>